<svg width="176" height="176" viewBox="0 0 176 176" fill="none" xmlns="http://www.w3.org/2000/svg">
  <rect width="176" height="176" rx="44" fill="#0F172A"/>
  <rect x="14" y="14" width="148" height="148" rx="34" fill="url(#paint0_radial_25_4)" stroke="rgba(255,255,255,0.18)" stroke-width="2"/>
  <path d="M44 118V52H62.6V101.4H95.2V118H44Z" fill="#F8FAFC"/>
  <path d="M128.2 67.1C123.2 62.6 117.1 60.3 110 60.3C94.8 60.3 83.7 71.3 83.7 87.3C83.7 103.2 94.7 114.4 110.3 114.4C117.8 114.4 124.1 111.7 128.9 106.8L118.3 95.9C116 98 113.5 99 110.5 99C104.4 99 100.1 94.3 100.1 87.3C100.1 80.5 104.4 75.7 110.4 75.7C113.6 75.7 116 76.7 118.1 78.7L128.2 67.1Z" fill="#14B8A6"/>
  <path d="M47 137H129" stroke="#0F766E" stroke-width="5" stroke-linecap="round"/>
  <defs>
    <radialGradient id="paint0_radial_25_4" cx="0" cy="0" r="1" gradientUnits="userSpaceOnUse" gradientTransform="translate(42 26) rotate(49.3987) scale(171.78)">
      <stop stop-color="#0F766E"/>
      <stop offset="0.48" stop-color="#0F172A"/>
      <stop offset="1" stop-color="#0F172A"/>
    </radialGradient>
  </defs>
</svg>
