<svg width="64" height="64" viewBox="0 0 64 64" fill="none" xmlns="http://www.w3.org/2000/svg">
  <rect width="64" height="64" rx="18" fill="#0F172A"/>
  <path d="M17 43V18H24V37H36V43H17Z" fill="#F8FAFC"/>
  <path d="M47 23.8C45.1 22.1 42.8 21.2 40.1 21.2C34.4 21.2 30.2 25.3 30.2 31.4C30.2 37.4 34.3 41.6 40.2 41.6C43 41.6 45.4 40.6 47.2 38.7L43.2 34.6C42.3 35.4 41.4 35.8 40.2 35.8C37.9 35.8 36.3 34 36.3 31.4C36.3 28.8 37.9 27 40.2 27C41.4 27 42.3 27.4 43.1 28.1L47 23.8Z" fill="#14B8A6"/>
</svg>
